<svg id="visual" viewBox="0 0 900 600" width="900" height="600" xmlns="http://www.w3.org/2000/svg" xmlns:xlink="http://www.w3.org/1999/xlink" version="1.1"><path d="M0 103L13.7 94C27.3 85 54.7 67 82 58C109.3 49 136.7 49 163.8 56C191 63 218 77 245.2 83C272.3 89 299.7 87 327 85C354.3 83 381.7 81 409 77C436.3 73 463.7 67 491 60C518.3 53 545.7 45 573 48C600.3 51 627.7 65 654.8 76C682 87 709 95 736.2 95C763.3 95 790.7 87 818 76C845.3 65 872.7 51 886.3 44L900 37L900 0L886.3 0C872.7 0 845.3 0 818 0C790.7 0 763.3 0 736.2 0C709 0 682 0 654.8 0C627.7 0 600.3 0 573 0C545.7 0 518.3 0 491 0C463.7 0 436.3 0 409 0C381.7 0 354.3 0 327 0C299.7 0 272.3 0 245.2 0C218 0 191 0 163.8 0C136.7 0 109.3 0 82 0C54.7 0 27.3 0 13.7 0L0 0Z" fill="#dee1e4"></path><path d="M0 181L13.7 180C27.3 179 54.7 177 82 174C109.3 171 136.7 167 163.8 173C191 179 218 195 245.2 193C272.3 191 299.7 171 327 160C354.3 149 381.7 147 409 149C436.3 151 463.7 157 491 149C518.3 141 545.7 119 573 117C600.3 115 627.7 133 654.8 150C682 167 709 183 736.2 195C763.3 207 790.7 215 818 203C845.3 191 872.7 159 886.3 143L900 127L900 35L886.3 42C872.7 49 845.3 63 818 74C790.7 85 763.3 93 736.2 93C709 93 682 85 654.8 74C627.7 63 600.3 49 573 46C545.7 43 518.3 51 491 58C463.7 65 436.3 71 409 75C381.7 79 354.3 81 327 83C299.7 85 272.3 87 245.2 81C218 75 191 61 163.8 54C136.7 47 109.3 47 82 56C54.7 65 27.3 83 13.7 92L0 101Z" fill="#d6dade"></path><path d="M0 415L13.7 401C27.3 387 54.7 359 82 350C109.3 341 136.7 351 163.8 356C191 361 218 361 245.2 361C272.3 361 299.7 361 327 341C354.3 321 381.7 281 409 264C436.3 247 463.7 253 491 260C518.3 267 545.7 275 573 278C600.3 281 627.7 279 654.8 286C682 293 709 309 736.2 314C763.3 319 790.7 313 818 328C845.3 343 872.7 379 886.3 397L900 415L900 125L886.3 141C872.7 157 845.3 189 818 201C790.7 213 763.3 205 736.2 193C709 181 682 165 654.8 148C627.7 131 600.3 113 573 115C545.7 117 518.3 139 491 147C463.7 155 436.3 149 409 147C381.7 145 354.3 147 327 158C299.7 169 272.3 189 245.2 191C218 193 191 177 163.8 171C136.7 165 109.3 169 82 172C54.7 175 27.3 177 13.7 178L0 179Z" fill="#cfd3d8"></path><path d="M0 469L13.7 458C27.3 447 54.7 425 82 419C109.3 413 136.7 423 163.8 433C191 443 218 453 245.2 460C272.3 467 299.7 471 327 454C354.3 437 381.7 399 409 384C436.3 369 463.7 377 491 381C518.3 385 545.7 385 573 376C600.3 367 627.7 349 654.8 350C682 351 709 371 736.2 374C763.3 377 790.7 363 818 375C845.3 387 872.7 425 886.3 444L900 463L900 413L886.3 395C872.7 377 845.3 341 818 326C790.7 311 763.3 317 736.2 312C709 307 682 291 654.8 284C627.7 277 600.3 279 573 276C545.7 273 518.3 265 491 258C463.7 251 436.3 245 409 262C381.7 279 354.3 319 327 339C299.7 359 272.3 359 245.2 359C218 359 191 359 163.8 354C136.7 349 109.3 339 82 348C54.7 357 27.3 385 13.7 399L0 413Z" fill="#c7cbd1"></path><path d="M0 601L13.7 601C27.3 601 54.7 601 82 601C109.3 601 136.7 601 163.8 601C191 601 218 601 245.2 601C272.3 601 299.7 601 327 601C354.3 601 381.7 601 409 601C436.3 601 463.7 601 491 601C518.3 601 545.7 601 573 601C600.3 601 627.7 601 654.8 601C682 601 709 601 736.2 601C763.3 601 790.7 601 818 601C845.3 601 872.7 601 886.3 601L900 601L900 461L886.3 442C872.7 423 845.3 385 818 373C790.7 361 763.3 375 736.2 372C709 369 682 349 654.8 348C627.7 347 600.3 365 573 374C545.7 383 518.3 383 491 379C463.7 375 436.3 367 409 382C381.7 397 354.3 435 327 452C299.7 469 272.3 465 245.2 458C218 451 191 441 163.8 431C136.7 421 109.3 411 82 417C54.7 423 27.3 445 13.7 456L0 467Z" fill="#bfc4cb"></path></svg>