<svg id="visual" viewBox="0 0 900 600" width="1800" height="1200" xmlns="http://www.w3.org/2000/svg" xmlns:xlink="http://www.w3.org/1999/xlink" version="1.1"><rect x="0" y="0" width="900" height="600" fill="#edede9"></rect><defs><linearGradient id="grad1_0" x1="33.3%" y1="100%" x2="100%" y2="0%"><stop offset="20%" stop-color="#edf2f4" stop-opacity="1"></stop><stop offset="80%" stop-color="#edf2f4" stop-opacity="1"></stop></linearGradient></defs><defs><linearGradient id="grad1_1" x1="33.3%" y1="100%" x2="100%" y2="0%"><stop offset="20%" stop-color="#edf2f4" stop-opacity="1"></stop><stop offset="80%" stop-color="#edede9" stop-opacity="1"></stop></linearGradient></defs><defs><linearGradient id="grad2_0" x1="0%" y1="100%" x2="66.7%" y2="0%"><stop offset="20%" stop-color="#edf2f4" stop-opacity="1"></stop><stop offset="80%" stop-color="#edf2f4" stop-opacity="1"></stop></linearGradient></defs><defs><linearGradient id="grad2_1" x1="0%" y1="100%" x2="66.7%" y2="0%"><stop offset="20%" stop-color="#edede9" stop-opacity="1"></stop><stop offset="80%" stop-color="#edf2f4" stop-opacity="1"></stop></linearGradient></defs><g transform="translate(900, 600)"><path d="M-513.8 0C-512.8 -46.9 -511.8 -93.8 -493.6 -132.3C-475.3 -170.7 -439.8 -200.7 -418.3 -241.5C-396.8 -282.3 -389.3 -333.8 -357.8 -357.8C-326.3 -381.8 -270.9 -378.1 -231.5 -401C-192.1 -423.8 -168.9 -473.1 -133 -496.3C-97.1 -519.5 -48.5 -516.6 0 -513.8L0 0Z" fill="#dcf1f7"></path><path d="M-256.9 0C-256.4 -23.5 -255.9 -46.9 -246.8 -66.1C-237.7 -85.4 -219.9 -100.4 -209.1 -120.8C-198.4 -141.1 -194.6 -166.9 -178.9 -178.9C-163.2 -190.9 -135.4 -189.1 -115.8 -200.5C-96.1 -211.9 -84.4 -236.5 -66.5 -248.1C-48.5 -259.7 -24.3 -258.3 0 -256.9L0 0Z" fill="#edf2f4"></path></g><g transform="translate(0, 0)"><path d="M513.8 0C516.9 48.8 520 97.6 493.6 132.3C467.2 166.9 411.3 187.3 386.2 223C361.2 258.7 366.8 309.9 350.7 350.7C334.6 391.6 296.8 422.2 256.9 445C217 467.7 175.1 482.5 132 492.6C88.8 502.8 44.4 508.3 0 513.8L0 0Z" fill="#dcf1f7"></path><path d="M256.9 0C258.4 24.4 260 48.8 246.8 66.1C233.6 83.4 205.7 93.6 193.1 111.5C180.6 129.4 183.4 154.9 175.4 175.4C167.3 195.8 148.4 211.1 128.4 222.5C108.5 233.8 87.6 241.2 66 246.3C44.4 251.4 22.2 254.1 0 256.9L0 0Z" fill="#edf2f4"></path></g></svg>