<svg id="visual" viewBox="0 0 2000 1200" width="2000" height="1200" xmlns="http://www.w3.org/2000/svg" xmlns:xlink="http://www.w3.org/1999/xlink" version="1.1"><rect x="0" y="0" width="2000" height="1200" fill="#dee2e6"></rect><defs><linearGradient id="grad1_0" x1="40%" y1="100%" x2="100%" y2="0%"><stop offset="16.666666666666664%" stop-color="#f8f9fa" stop-opacity="1"></stop><stop offset="83.33333333333334%" stop-color="#f8f9fa" stop-opacity="1"></stop></linearGradient></defs><defs><linearGradient id="grad1_1" x1="40%" y1="100%" x2="100%" y2="0%"><stop offset="16.666666666666664%" stop-color="#f8f9fa" stop-opacity="1"></stop><stop offset="83.33333333333334%" stop-color="#f1f3f5" stop-opacity="1"></stop></linearGradient></defs><defs><linearGradient id="grad1_2" x1="40%" y1="100%" x2="100%" y2="0%"><stop offset="16.666666666666664%" stop-color="#ebedf0" stop-opacity="1"></stop><stop offset="83.33333333333334%" stop-color="#f1f3f5" stop-opacity="1"></stop></linearGradient></defs><defs><linearGradient id="grad1_3" x1="40%" y1="100%" x2="100%" y2="0%"><stop offset="16.666666666666664%" stop-color="#ebedf0" stop-opacity="1"></stop><stop offset="83.33333333333334%" stop-color="#e4e8eb" stop-opacity="1"></stop></linearGradient></defs><defs><linearGradient id="grad1_4" x1="40%" y1="100%" x2="100%" y2="0%"><stop offset="16.666666666666664%" stop-color="#dee2e6" stop-opacity="1"></stop><stop offset="83.33333333333334%" stop-color="#e4e8eb" stop-opacity="1"></stop></linearGradient></defs><defs><linearGradient id="grad2_0" x1="0%" y1="100%" x2="60%" y2="0%"><stop offset="16.666666666666664%" stop-color="#f8f9fa" stop-opacity="1"></stop><stop offset="83.33333333333334%" stop-color="#f8f9fa" stop-opacity="1"></stop></linearGradient></defs><defs><linearGradient id="grad2_1" x1="0%" y1="100%" x2="60%" y2="0%"><stop offset="16.666666666666664%" stop-color="#f1f3f5" stop-opacity="1"></stop><stop offset="83.33333333333334%" stop-color="#f8f9fa" stop-opacity="1"></stop></linearGradient></defs><defs><linearGradient id="grad2_2" x1="0%" y1="100%" x2="60%" y2="0%"><stop offset="16.666666666666664%" stop-color="#f1f3f5" stop-opacity="1"></stop><stop offset="83.33333333333334%" stop-color="#ebedf0" stop-opacity="1"></stop></linearGradient></defs><defs><linearGradient id="grad2_3" x1="0%" y1="100%" x2="60%" y2="0%"><stop offset="16.666666666666664%" stop-color="#e4e8eb" stop-opacity="1"></stop><stop offset="83.33333333333334%" stop-color="#ebedf0" stop-opacity="1"></stop></linearGradient></defs><defs><linearGradient id="grad2_4" x1="0%" y1="100%" x2="60%" y2="0%"><stop offset="16.666666666666664%" stop-color="#e4e8eb" stop-opacity="1"></stop><stop offset="83.33333333333334%" stop-color="#dee2e6" stop-opacity="1"></stop></linearGradient></defs><g transform="translate(2000, 1200)"><path d="M-1049.6 0C-999.2 -50.8 -948.9 -101.5 -909.7 -144.1C-870.4 -186.6 -842.2 -220.9 -857.9 -278.7C-873.5 -336.6 -932.9 -417.9 -931.1 -474.4C-929.3 -530.9 -866.4 -562.7 -807.4 -586.6C-748.4 -610.6 -693.2 -626.7 -647.7 -647.7C-602.2 -668.7 -566.3 -694.5 -540.8 -744.3C-515.3 -794.1 -500.2 -867.9 -465.3 -913.3C-430.5 -958.7 -375.8 -975.8 -322.6 -992.9C-269.4 -1010 -217.7 -1027.2 -164.2 -1036.6C-110.7 -1046.1 -55.3 -1047.8 0 -1049.6L0 0Z" fill="#e1e5e8"></path><path d="M-839.7 0C-799.4 -40.6 -759.1 -81.2 -727.7 -115.3C-696.3 -149.3 -673.8 -176.7 -686.3 -223C-698.8 -269.2 -746.3 -334.3 -744.9 -379.5C-743.5 -424.8 -693.1 -450.1 -645.9 -469.3C-598.7 -488.4 -554.6 -501.4 -518.2 -518.2C-481.7 -535 -453 -555.6 -432.6 -595.4C-412.2 -635.3 -400.2 -694.3 -372.3 -730.6C-344.4 -767 -300.6 -780.6 -258.1 -794.3C-215.5 -808 -174.2 -821.8 -131.4 -829.3C-88.5 -836.9 -44.3 -838.3 0 -839.7L0 0Z" fill="#e8ebed"></path><path d="M-629.7 0C-599.5 -30.5 -569.3 -60.9 -545.8 -86.4C-522.2 -112 -505.3 -132.5 -514.7 -167.2C-524.1 -201.9 -559.7 -250.7 -558.7 -284.7C-557.6 -318.6 -519.9 -337.6 -484.4 -352C-449 -366.3 -415.9 -376 -388.6 -388.6C-361.3 -401.2 -339.8 -416.7 -324.5 -446.6C-309.2 -476.5 -300.1 -520.7 -279.2 -548C-258.3 -575.2 -225.5 -585.5 -193.6 -595.7C-161.7 -606 -130.6 -616.3 -98.5 -622C-66.4 -627.7 -33.2 -628.7 0 -629.7L0 0Z" fill="#eef0f2"></path><path d="M-419.8 0C-399.7 -20.3 -379.6 -40.6 -363.9 -57.6C-348.2 -74.6 -336.9 -88.4 -343.1 -111.5C-349.4 -134.6 -373.1 -167.2 -372.4 -189.8C-371.7 -212.4 -346.6 -225.1 -323 -234.6C-299.3 -244.2 -277.3 -250.7 -259.1 -259.1C-240.9 -267.5 -226.5 -277.8 -216.3 -297.7C-206.1 -317.6 -200.1 -347.1 -186.1 -365.3C-172.2 -383.5 -150.3 -390.3 -129 -397.2C-107.8 -404 -87.1 -410.9 -65.7 -414.7C-44.3 -418.4 -22.1 -419.1 0 -419.8L0 0Z" fill="#f5f6f7"></path><path d="M-209.9 0C-199.8 -10.2 -189.8 -20.3 -181.9 -28.8C-174.1 -37.3 -168.4 -44.2 -171.6 -55.7C-174.7 -67.3 -186.6 -83.6 -186.2 -94.9C-185.9 -106.2 -173.3 -112.5 -161.5 -117.3C-149.7 -122.1 -138.6 -125.3 -129.5 -129.5C-120.4 -133.7 -113.3 -138.9 -108.2 -148.9C-103.1 -158.8 -100 -173.6 -93.1 -182.7C-86.1 -191.7 -75.2 -195.2 -64.5 -198.6C-53.9 -202 -43.5 -205.4 -32.8 -207.3C-22.1 -209.2 -11.1 -209.6 0 -209.9L0 0Z" fill="#f8f9fa"></path></g><g transform="translate(0, 0)"><path d="M1049.6 0C1034.2 54.3 1018.9 108.6 995.6 157.7C972.3 206.7 941.1 250.6 927.3 301.3C913.5 352 917 409.7 899 458.1C881 506.5 841.5 545.6 805.8 585.4C770.1 625.3 738.2 666 703.6 703.6C669 741.2 631.6 775.6 596.6 821.2C561.6 866.7 529 923.2 476.5 935.2C424 947.1 351.7 914.5 294.8 907.3C237.9 900.1 196.4 918.3 149.9 946.2C103.3 974.1 51.7 1011.9 0 1049.6L0 0Z" fill="#e1e5e8"></path><path d="M839.7 0C827.4 43.5 815.1 86.9 796.5 126.1C777.8 165.4 752.9 200.4 741.8 241C730.8 281.6 733.6 327.8 719.2 366.5C704.8 405.2 673.2 436.4 644.6 468.3C616.1 500.3 590.6 532.8 562.9 562.9C535.2 592.9 505.3 620.5 477.3 656.9C449.3 693.3 423.2 738.6 381.2 748.1C339.2 757.7 281.4 731.6 235.8 725.8C190.3 720.1 157.1 734.6 119.9 757C82.6 779.3 41.3 809.5 0 839.7L0 0Z" fill="#e8ebed"></path><path d="M629.7 0C620.5 32.6 611.3 65.2 597.4 94.6C583.4 124 564.7 150.3 556.4 180.8C548.1 211.2 550.2 245.8 539.4 274.8C528.6 303.9 504.9 327.3 483.5 351.3C462 375.2 442.9 399.6 422.1 422.1C401.4 444.7 379 465.4 358 492.7C337 520 317.4 553.9 285.9 561.1C254.4 568.3 211 548.7 176.9 544.4C142.7 540.1 117.9 551 89.9 567.7C62 584.5 31 607.1 0 629.7L0 0Z" fill="#eef0f2"></path><path d="M419.8 0C413.7 21.7 407.5 43.5 398.2 63.1C388.9 82.7 376.4 100.2 370.9 120.5C365.4 140.8 366.8 163.9 359.6 183.2C352.4 202.6 336.6 218.2 322.3 234.2C308 250.1 295.3 266.4 281.4 281.4C267.6 296.5 252.6 310.3 238.6 328.5C224.6 346.7 211.6 369.3 190.6 374.1C169.6 378.9 140.7 365.8 117.9 362.9C95.2 360 78.6 367.3 59.9 378.5C41.3 389.7 20.7 404.7 0 419.8L0 0Z" fill="#f5f6f7"></path><path d="M209.9 0C206.8 10.9 203.8 21.7 199.1 31.5C194.5 41.3 188.2 50.1 185.5 60.3C182.7 70.4 183.4 81.9 179.8 91.6C176.2 101.3 168.3 109.1 161.2 117.1C154 125.1 147.6 133.2 140.7 140.7C133.8 148.2 126.3 155.1 119.3 164.2C112.3 173.3 105.8 184.6 95.3 187C84.8 189.4 70.3 182.9 59 181.5C47.6 180 39.3 183.7 30 189.2C20.7 194.8 10.3 202.4 0 209.9L0 0Z" fill="#f8f9fa"></path></g></svg>