<svg id="visual" viewBox="0 0 1800 1200" width="1800" height="1200" xmlns="http://www.w3.org/2000/svg" xmlns:xlink="http://www.w3.org/1999/xlink" version="1.1"><rect x="0" y="0" width="1800" height="1200" fill="#caf0f8"></rect><defs><linearGradient id="grad1_0" x1="33.3%" y1="100%" x2="100%" y2="0%"><stop offset="20%" stop-color="#e3f2fd" stop-opacity="1"></stop><stop offset="80%" stop-color="#e3f2fd" stop-opacity="1"></stop></linearGradient></defs><defs><linearGradient id="grad1_1" x1="33.3%" y1="100%" x2="100%" y2="0%"><stop offset="20%" stop-color="#e3f2fd" stop-opacity="1"></stop><stop offset="80%" stop-color="#caf0f8" stop-opacity="1"></stop></linearGradient></defs><defs><linearGradient id="grad2_0" x1="0%" y1="100%" x2="66.7%" y2="0%"><stop offset="20%" stop-color="#e3f2fd" stop-opacity="1"></stop><stop offset="80%" stop-color="#e3f2fd" stop-opacity="1"></stop></linearGradient></defs><defs><linearGradient id="grad2_1" x1="0%" y1="100%" x2="66.7%" y2="0%"><stop offset="20%" stop-color="#caf0f8" stop-opacity="1"></stop><stop offset="80%" stop-color="#e3f2fd" stop-opacity="1"></stop></linearGradient></defs><g transform="translate(1800, 1200)"><path d="M-919.4 0C-883.8 -56.4 -848.1 -112.8 -814.1 -161.9C-780 -211.1 -747.4 -253 -728.9 -301.9C-710.5 -350.8 -706 -406.7 -691.8 -462.2C-677.6 -517.7 -653.5 -572.9 -620.1 -620.1C-586.7 -667.4 -544 -706.7 -498.9 -746.7C-453.8 -786.6 -406.4 -827.3 -351.8 -849.4C-297.3 -871.5 -235.6 -875.1 -175.8 -883.7C-115.9 -892.3 -58 -905.8 0 -919.4L0 0Z" fill="#d7f1fc"></path><path d="M-459.7 0C-441.9 -28.2 -424.1 -56.4 -407 -81C-390 -105.5 -373.7 -126.5 -364.5 -151C-355.2 -175.4 -353 -203.4 -345.9 -231.1C-338.8 -258.9 -326.8 -286.5 -310.1 -310.1C-293.4 -333.7 -272 -353.3 -249.5 -373.3C-226.9 -393.3 -203.2 -413.7 -175.9 -424.7C-148.6 -435.8 -117.8 -437.6 -87.9 -441.8C-58 -446.1 -29 -452.9 0 -459.7L0 0Z" fill="#e3f2fd"></path></g><g transform="translate(0, 0)"><path d="M919.4 0C927.3 64.9 935.2 129.7 899.4 178.9C863.6 228.1 784.2 261.6 755.7 313C727.3 364.4 749.8 433.7 743.3 496.7C736.9 559.6 701.4 616.3 650.1 650.1C598.8 683.9 531.7 694.9 472.8 707.6C413.9 720.3 363.3 734.6 315.3 761.3C267.4 787.9 222.2 826.8 170.1 855.2C118 883.6 59 901.5 0 919.4L0 0Z" fill="#d7f1fc"></path><path d="M459.7 0C463.6 32.4 467.6 64.9 449.7 89.4C431.8 114 392.1 130.8 377.9 156.5C363.6 182.2 374.9 216.9 371.7 248.3C368.4 279.8 350.7 308.2 325.1 325.1C299.4 342 265.8 347.5 236.4 353.8C206.9 360.1 181.6 367.3 157.7 380.6C133.7 394 111.1 413.4 85.1 427.6C59 441.8 29.5 450.8 0 459.7L0 0Z" fill="#e3f2fd"></path></g></svg>