<svg id="visual" viewBox="0 0 900 600" width="900" height="600" xmlns="http://www.w3.org/2000/svg" xmlns:xlink="http://www.w3.org/1999/xlink" version="1.1"><rect x="0" y="0" width="900" height="600" fill="#001220"></rect><path d="M0 386L21.5 388C43 390 86 394 128.8 403.8C171.7 413.7 214.3 429.3 257.2 433.8C300 438.3 343 431.7 385.8 426.3C428.7 421 471.3 417 514.2 412.7C557 408.3 600 403.7 642.8 409.7C685.7 415.7 728.3 432.3 771.2 435C814 437.7 857 426.3 878.5 420.7L900 415L900 601L878.5 601C857 601 814 601 771.2 601C728.3 601 685.7 601 642.8 601C600 601 557 601 514.2 601C471.3 601 428.7 601 385.8 601C343 601 300 601 257.2 601C214.3 601 171.7 601 128.8 601C86 601 43 601 21.5 601L0 601Z" fill="#fa7268"></path><path d="M0 453L21.5 449.7C43 446.3 86 439.7 128.8 432.3C171.7 425 214.3 417 257.2 418.8C300 420.7 343 432.3 385.8 438.5C428.7 444.7 471.3 445.3 514.2 441.7C557 438 600 430 642.8 422.5C685.7 415 728.3 408 771.2 410.7C814 413.3 857 425.7 878.5 431.8L900 438L900 601L878.5 601C857 601 814 601 771.2 601C728.3 601 685.7 601 642.8 601C600 601 557 601 514.2 601C471.3 601 428.7 601 385.8 601C343 601 300 601 257.2 601C214.3 601 171.7 601 128.8 601C86 601 43 601 21.5 601L0 601Z" fill="#ef5f67"></path><path d="M0 499L21.5 497C43 495 86 491 128.8 481.5C171.7 472 214.3 457 257.2 451.2C300 445.3 343 448.7 385.8 449C428.7 449.3 471.3 446.7 514.2 445.7C557 444.7 600 445.3 642.8 453.8C685.7 462.3 728.3 478.7 771.2 480.8C814 483 857 471 878.5 465L900 459L900 601L878.5 601C857 601 814 601 771.2 601C728.3 601 685.7 601 642.8 601C600 601 557 601 514.2 601C471.3 601 428.7 601 385.8 601C343 601 300 601 257.2 601C214.3 601 171.7 601 128.8 601C86 601 43 601 21.5 601L0 601Z" fill="#e34c67"></path><path d="M0 536L21.5 528.2C43 520.3 86 504.7 128.8 498C171.7 491.3 214.3 493.7 257.2 495.3C300 497 343 498 385.8 501.3C428.7 504.7 471.3 510.3 514.2 517C557 523.7 600 531.3 642.8 529.5C685.7 527.7 728.3 516.3 771.2 516.5C814 516.7 857 528.3 878.5 534.2L900 540L900 601L878.5 601C857 601 814 601 771.2 601C728.3 601 685.7 601 642.8 601C600 601 557 601 514.2 601C471.3 601 428.7 601 385.8 601C343 601 300 601 257.2 601C214.3 601 171.7 601 128.8 601C86 601 43 601 21.5 601L0 601Z" fill="#d53867"></path><path d="M0 541L21.5 544C43 547 86 553 128.8 553C171.7 553 214.3 547 257.2 549.2C300 551.3 343 561.7 385.8 564.5C428.7 567.3 471.3 562.7 514.2 557.8C557 553 600 548 642.8 545.3C685.7 542.7 728.3 542.3 771.2 539.2C814 536 857 530 878.5 527L900 524L900 601L878.5 601C857 601 814 601 771.2 601C728.3 601 685.7 601 642.8 601C600 601 557 601 514.2 601C471.3 601 428.7 601 385.8 601C343 601 300 601 257.2 601C214.3 601 171.7 601 128.8 601C86 601 43 601 21.5 601L0 601Z" fill="#c62368"></path></svg>