<svg id="visual" viewBox="0 0 2000 150" width="2000" height="150" xmlns="http://www.w3.org/2000/svg" xmlns:xlink="http://www.w3.org/1999/xlink" version="1.1"><path d="M0 60L30.3 61.7C60.7 63.3 121.3 66.7 182 62.2C242.7 57.7 303.3 45.3 363.8 41.2C424.3 37 484.7 41 545.2 40.5C605.7 40 666.3 35 727 42.2C787.7 49.3 848.3 68.7 909 73.2C969.7 77.7 1030.3 67.3 1091 63.8C1151.7 60.3 1212.3 63.7 1273 63.2C1333.7 62.7 1394.3 58.3 1454.8 53.7C1515.3 49 1575.7 44 1636.2 40.7C1696.7 37.3 1757.3 35.7 1818 36.3C1878.7 37 1939.3 40 1969.7 41.5L2000 43L2000 0L1969.7 0C1939.3 0 1878.7 0 1818 0C1757.3 0 1696.7 0 1636.2 0C1575.7 0 1515.3 0 1454.8 0C1394.3 0 1333.7 0 1273 0C1212.3 0 1151.7 0 1091 0C1030.3 0 969.7 0 909 0C848.3 0 787.7 0 727 0C666.3 0 605.7 0 545.2 0C484.7 0 424.3 0 363.8 0C303.3 0 242.7 0 182 0C121.3 0 60.7 0 30.3 0L0 0Z" fill="#84d2f6" style="opacity: 0.3"></path><path d="M0 108L30.3 111.5C60.7 115 121.3 122 182 123.5C242.7 125 303.3 121 363.8 116.2C424.3 111.3 484.7 105.7 545.2 103.5C605.7 101.3 666.3 102.7 727 106.7C787.7 110.7 848.3 117.3 909 121.7C969.7 126 1030.3 128 1091 124.7C1151.7 121.3 1212.3 112.7 1273 108C1333.7 103.3 1394.3 102.7 1454.8 101.8C1515.3 101 1575.7 100 1636.2 103.5C1696.7 107 1757.3 115 1818 115.7C1878.7 116.3 1939.3 109.7 1969.7 106.3L2000 103L2000 41L1969.7 39.5C1939.3 38 1878.7 35 1818 34.3C1757.3 33.7 1696.7 35.3 1636.2 38.7C1575.7 42 1515.3 47 1454.8 51.7C1394.3 56.3 1333.7 60.7 1273 61.2C1212.3 61.7 1151.7 58.3 1091 61.8C1030.3 65.3 969.7 75.7 909 71.2C848.3 66.7 787.7 47.3 727 40.2C666.3 33 605.7 38 545.2 38.5C484.7 39 424.3 35 363.8 39.2C303.3 43.3 242.7 55.7 182 60.2C121.3 64.7 60.7 61.3 30.3 59.7L0 58Z" fill="#f4f4f6" style="opacity: 0.1"></path><path d="M0 151L30.3 151C60.7 151 121.3 151 182 151C242.7 151 303.3 151 363.8 151C424.3 151 484.7 151 545.2 151C605.7 151 666.3 151 727 151C787.7 151 848.3 151 909 151C969.7 151 1030.3 151 1091 151C1151.7 151 1212.3 151 1273 151C1333.7 151 1394.3 151 1454.8 151C1515.3 151 1575.7 151 1636.2 151C1696.7 151 1757.3 151 1818 151C1878.7 151 1939.3 151 1969.7 151L2000 151L2000 101L1969.7 104.3C1939.3 107.7 1878.7 114.3 1818 113.7C1757.3 113 1696.7 105 1636.2 101.5C1575.7 98 1515.3 99 1454.8 99.8C1394.3 100.7 1333.7 101.3 1273 106C1212.3 110.7 1151.7 119.3 1091 122.7C1030.3 126 969.7 124 909 119.7C848.3 115.3 787.7 108.7 727 104.7C666.3 100.7 605.7 99.3 545.2 101.5C484.7 103.7 424.3 109.3 363.8 114.2C303.3 119 242.7 123 182 121.5C121.3 120 60.7 113 30.3 109.5L0 106Z" fill="#22577a"></path></svg>