<svg width="97" height="97" viewBox="0 0 97 97" fill="none" xmlns="http://www.w3.org/2000/svg">
<path d="M36.375 57.5938H60.625" stroke="#50B8C1" stroke-width="3" stroke-linecap="round" stroke-linejoin="round"/>
<path d="M36.375 45.4688H60.625" stroke="#50B8C1" stroke-width="3" stroke-linecap="round" stroke-linejoin="round"/>
<path d="M60.625 15.1563H75.7812C76.5852 15.1563 77.3562 15.4756 77.9247 16.0441C78.4931 16.6126 78.8125 17.3836 78.8125 18.1875V81.8438C78.8125 82.6477 78.4931 83.4187 77.9247 83.9872C77.3562 84.5556 76.5852 84.875 75.7812 84.875H21.2188C20.4148 84.875 19.6438 84.5556 19.0753 83.9872C18.5069 83.4187 18.1875 82.6477 18.1875 81.8438V18.1875C18.1875 17.3836 18.5069 16.6126 19.0753 16.0441C19.6438 15.4756 20.4148 15.1562 21.2188 15.1563H36.375" stroke="#50B8C1" stroke-width="3" stroke-linecap="round" stroke-linejoin="round"/>
<path d="M33.3438 27.2812V24.25C33.3438 20.2303 34.9406 16.3753 37.7829 13.5329C40.6253 10.6906 44.4803 9.09375 48.5 9.09375C52.5197 9.09375 56.3747 10.6906 59.2171 13.5329C62.0594 16.3753 63.6562 20.2303 63.6562 24.25V27.2812H33.3438Z" stroke="#50B8C1" stroke-width="3" stroke-linecap="round" stroke-linejoin="round"/>
</svg>
