<svg width="110" height="22" viewBox="0 0 110 22" fill="none" xmlns="http://www.w3.org/2000/svg">
<g clip-path="url(#clip0_2760_519)">
<path d="M16.5029 5.74972L0 22L5.66687 21.6321L17.2947 10.1099C17.5912 9.81637 18.0978 9.97007 18.178 10.3757L19.0411 14.7964L19.1887 15.5523L11.3948 18.4561C11.2676 18.4864 11.2968 18.6791 11.4279 18.669L19.6851 18.0794L20.1892 20.691L24.7258 20.3975L21.7116 5.42847L16.5029 5.74972Z" fill="#2455B0"/>
<path d="M65.7545 2.63684L45.7626 3.91932L44.2708 7.42663L52.1792 6.91388L46.9922 19.0118L51.1634 18.7409L56.3606 6.59641L64.2792 6.08241L65.7545 2.63684Z" fill="#2455B0"/>
<path d="M85.7974 2.73255C85.1648 1.82801 84.1134 1.45889 82.6343 1.55463L67.6168 2.51712L60.9431 18.1135L65.1144 17.8427L67.5392 12.1748L74.5108 11.7225L76.681 17.0918L81.5333 16.7769L79.0079 11.3761C80.4297 11.1292 81.7891 10.5194 83.0862 9.5481C84.3935 8.55411 85.3188 7.42281 85.8624 6.15292C86.4504 4.77848 86.4288 3.63709 85.7974 2.73255ZM81.7191 6.43386C81.5409 6.86723 81.2329 7.2414 80.7937 7.55761C80.38 7.865 79.9282 8.03507 79.4368 8.06657L69.0132 8.73175L70.3115 5.69813L80.7403 5.02162C81.2405 4.96745 81.5715 5.08209 81.7306 5.36806C81.9253 5.62255 81.9215 5.97655 81.7191 6.43386Z" fill="#2455B0"/>
<path d="M109.554 1.12126C108.983 0.293568 108.013 -0.0755554 106.646 0.012631L94.6998 0.787412C93.3404 0.875598 91.9899 1.3959 90.6495 2.34705C89.3168 3.29821 88.3812 4.40558 87.8403 5.66664L85.2767 11.6545L90.1022 9.85802L91.6933 6.13781C91.9173 5.61247 92.2903 5.17154 92.8134 4.81249C93.348 4.42321 93.889 4.21534 94.4363 4.18637L103.928 3.57032C104.495 3.51111 104.884 3.65725 105.098 4.00496C105.331 4.32243 105.335 4.74446 105.109 5.26854L102.963 10.2864C102.752 10.7802 102.378 11.2224 101.843 11.6117C101.328 11.9707 100.787 12.1786 100.22 12.2378L92.1057 12.7644L88.8891 13.0214L84.7153 13.32C84.7103 13.3351 84.7064 13.3464 84.7039 13.3552C84.5893 14.1023 84.7217 14.7498 85.1036 15.3029C85.6815 16.1306 86.6514 16.4997 88.0121 16.4115L99.9581 15.638C101.326 15.5486 102.676 15.0295 104.008 14.0784C105.347 13.126 106.284 12.0198 106.818 10.7588L109.599 4.25944C110.148 2.99333 110.132 1.94895 109.554 1.12126Z" fill="#2455B0"/>
<path d="M40.7398 10.5357C39.7368 10.6 38.1558 10.7045 35.9996 10.8381C33.8548 10.9716 32.2687 11.0837 31.2428 11.1505C30.8864 11.1732 30.4549 11.1177 30.3492 10.8771C30.2576 10.668 30.4842 9.93353 30.614 9.52787C30.7247 9.18142 30.7947 8.87403 31.1384 8.62963C31.5012 8.35499 31.8576 8.21767 32.2038 8.21641L42.4951 7.55123L43.9805 4.03259L32.9637 4.74186C31.5394 4.87792 30.1456 5.43098 28.7849 6.39851C27.4229 7.35218 26.4618 8.48223 25.9018 9.78991C25.3493 11.0825 25.3901 12.666 25.9743 13.5303C26.5662 14.3794 27.5578 14.7624 28.9529 14.6792L38.8012 14.0405C39.2021 14.014 39.6451 13.9498 39.7368 14.1627C39.7826 14.2698 39.6973 14.4348 39.5305 14.8228C39.3714 15.1957 39.1563 15.6946 38.8063 16.1393C38.376 16.6848 37.9993 16.6999 37.5728 16.7503L28.0962 17.4332C28.0593 17.4369 26.4771 17.5566 26.0303 17.5818L26.5968 20.3408C29.8808 20.143 36.5176 19.7021 36.5176 19.7021C37.9674 19.6076 39.4033 19.3833 40.8034 18.3767C42.2329 17.3676 43.2206 15.8647 43.7896 14.5192C44.3879 13.1725 44.3713 12.0613 43.7412 11.1858C43.1468 10.2901 42.1934 10.4425 40.7398 10.5357Z" fill="#2455B0"/>
</g>
<defs>
<clipPath id="clip0_2760_519">
<rect width="110" height="22" fill="white"/>
</clipPath>
</defs>
</svg>
